REM DIRINDEX 1\2,1\3
REM DIRNAME folder01,folder02,folder03
TITLE ""
FILE "Disk1Track40.mp3" MP3
  TRACK 01 AUDIO
    TITLE "2:cjc052_0267"
    INDEX 01 00:00:00
  TRACK 02 AUDIO
    TITLE "2:cjc052_0268"
    INDEX 01 00:04:48
  TRACK 03 AUDIO
    TITLE "2:cjc052_0269"
    INDEX 01 00:13:71
  TRACK 04 AUDIO
    TITLE "2:cjc052_0270"
    INDEX 01 00:25:41
  TRACK 05 AUDIO
    TITLE "0:"
    INDEX 01 00:42:29
